/* XPM */
static char *wall_texture_west[] = {
/* columns rows colors chars-per-pixel */
"64 64 14 1 ",
"  c DimGray",
". c #777777777777",
"X c #7E247E247E24",
"o c #808280828082",
"O c #86D786D786D7",
"+ c #887388738873",
"@ c #8E988E988E98",
"# c #937E937E937E",
"$ c #979E979E979E",
"% c #986D986D986D",
"& c #9ECC9ECC9ECC",
"* c #A2D9A2D9A2D9",
"= c #A784A784A784",
"- c #A9A7A9A7A9A7",
/* pixels */
"                                                                ",
"                                                                ",
"                                                                ",
"                                                                ",
"                                                                ",
"     -------------------------------------------------------    ",
"     -------------------------------------------------------    ",
"     --------------------------%.%--------------------------    ",
"     --------------------=&#OoX...Xo+#&=--------------------    ",
"     ------------------&+oo#%&=$.$**%@oo+&=-----------------    ",
"     ---------------=%oo$=------o=----==$Xo%----------------    ",
"     --------------&oo&--=------o=--------*oX&--------------    ",
"     ------------=+X&-----=$@XoXooXo+%==----&X@=------------    ",
"     -----------*X@=---=%ooO$&==o*=&%+oX%=---=+X*-----------    ",
"     ----------@X$---=$oo&=-----o=-----&Oo%----$X@----------    ",
"     ---------@..=--*oo*--------o=-------&oo*--=..@---------    ",
"     --------*X..&-%o$=---=&#oXooooO#&=----%o%-&..X*--------    ",
"     -------=o$=&X#o*---=$oo#&*=o**%#oo$=---*o@o&=$X=-------    ",
"     -------@+---@X%---%o+&-----o=--=-&Oo%---%o@---+@-------    ",
"     ------&o=--$o%o&=@o&-------o=------&o+=&o%X%--=X&------    ",
"     -----=o%--*X*-&Xo+----=%+oXooo+&=---=+Oo&-*o*--%o=-----    ",
"     -----$o---o$--=oo&--=$XO$*=o**%oo$=--&Xo=--$o---O%-----    ",
"     -----o&--$o---@+&o&*oO*----o=---*OX*&o&+@---o%--&X=----    ",
"     ----&o---o*--%X=-&oX$------o=-----$XX&-=o%--&o---o&----    ",
"     ----+$--%O--=X&--*oo&--=$XXooo$=--&Xo*--&o=--O%--$+----    ",
"     ---=o=--o%--$O--=X$&X&%X+&=o*&+X%&o&$X---O$--&o=-=o=---    ",
"     ---&o--=X=--o&--$O--&Xo*---o=--*oX&--O$--&o=-=o*--o&---    ",
"     ---#@--%O--&o--=X*--%oo&---o=--&oo%--*o=--o&--+%--@#---    ",
"     ---O%--+%--#@--%O--=X&&X&#Xoo#&X&*o=--o%--@#--$@--%O---    ",
"     ---o*--X*--o&--+%--$+--&XO*o&oX%--+$--$+--&o--*o--*o---    ",
"     ---o==-o==-o*--o*--o&=-#oo+.+oO#--&o--*o--*X--*o--*o---    ",
"     --%.$--o=--o=--o=--o=--X*+...O*X--=X--=o--=o=-=X=-$.$--    ",
"     --...oooooXoooooooooooXoo.....XoooooooooooooXooXoo...--    ",
"     --%.$==o*==o*==o*=-o*==o&+...O&o==*o==*X==*o===X==$.$--    ",
"     ---X=--o=--o=--o*--o&--$oo+.OoO#--&X--*o--*o==*o--=X---    ",
"     ---o&--X&--O%--+$--$+--&oo*o&OX&--+$--%+--&o--*o--*o---    ",
"     ---O%--@$--##=-%o--=o&&X%$XoX#&X&&o==-o%--##--%@--%O---    ",
"     ---#@--%+--&o--=X*--%oo&---o=--&oo%--*X=-=o*--+%--@#---    ",
"     ---&o--=X=--X&--$O--&oo*---o=--*oo&--O$--&o=-=o*--o&---    ",
"     ---=o=--o%--$O---X$&X&%X+&=X*&+X%&X&$X---O$--%o--=X=---    ",
"     ----O$--%O--=o*--*Xo&--=$ooooo$=--&Xo*--&o---O%--$O----    ",
"     ----&o--=X*--%o=-&oo$---=--o=-----$oo&-=o%--&X---o&----    ",
"     -----X&--$o---++&o&*XO*----o=---*Oo*&X&+@---o%--&o-----    ",
"     -----%O---o$--=oX&-==$oo%*=o**$oX$==-&Xo=--%o---o%-----    ",
"     ------X%=-*o*-&oo+----=&+ooooX+%----=+oo&-*o*--%o------    ",
"     ------&o=--%o%o&=@o&-------X=------&X@-&o%o%--=X&------    ",
"     -------@+=--@X%---%XO*-----o==---&Oo%---%o@---+@=------    ",
"     --------o$=&o@o*---=$XX@&*=o=*&#oo$=---*X@o&=$o=-------    ",
"     --------*X..%-%o%-----*#ooooooo#&=----$o%-&..X*--------    ",
"     ---------#..=--*oo&--------o=-------*oX*--=..@---------    ",
"     ---------=@X$----%oo&=-----o=----=&oo$=---%X@=---------    ",
"     -----------*X@=---=%ooO$&*=o*=&$Ooo%----=+X*-----------    ",
"     ------------=@o&-----=%+ooooooo@%=-----&X@=------------    ",
"     --------------%oo&---------o=--------&OX&--------------    ",
"     ----------------$Xo%=------X=-----=$XX%----------------    ",
"     ------------------&+oo@%*=$.$**%@Xo+&------------------    ",
"     --------------------=&#Ooo...ooO#&=--------------------    ",
"     --------------------------%.%--------------------------    ",
"     -------------------------------------------------------    ",
"     -------------------------------------------------------    ",
"                                                                ",
"                                                                ",
"                                                                ",
"                                                                "
};
