/* XPM */
static char *wall_texture_east[] = {
/* columns rows colors chars-per-pixel */
"64 64 11 1 ",
"  c DimGray",
". c #6ADA6ADA6ADA",
"X c #777777777777",
"o c #7D667D667D66",
"O c #808080808080",
"+ c #8BE18BE18BE1",
"@ c #96BF96BF96BF",
"# c #984B984B984B",
"$ c #A153A153A153",
"% c #A716A716A716",
"& c #A9A8A9A8A9A8",
/* pixels */
"                                                                ",
"                                                                ",
"                                                                ",
"                                                                ",
"                                O                               ",
"     &&&&&&&&&&&&&&&&&&&&&&&&&&&O%&&&&&&&&&&&&&&&&&&&&&&&&&&    ",
"     &&&&&&&&&&&&&&&&&&&&&&&&&&&O&&&&&&&&&&&&&&&&&&&&&&&&&&&    ",
"     &&&&&&&&&&&&&&&&&&&&&&&&&&#X@&&&&&&&&&&&&&&&&&&&&&&&&&&    ",
"     &&&&&&&&&&&&&&&&&&&&&&&&&&XXX&&&&&&&&&&&&&&&&&&&&&&&&&&    ",
"     &&&&&&&&&&&&&&&&&&&&&&&&&%oXo%&&&&&&&&&&&&&&&&&&&&&&&&&    ",
"     &&&&&&&&&&&&&&&&&&&&&&&&&++o++&&&&&&&&&&&&&&&&&&&&&&&&&    ",
"     &&&&&&&&&&&&&&&&&&&&&&&&#O%O%O#&&&&&&&&&&&&&&&&&&&&&&&&    ",
"     &&&&&&&&&&&&&&&&&&&&&&&$O$&O%$O$&&&&&&&&&&&&&&&&&&&&&&&    ",
"     &&&&&&&&&&&&&&&&&&&&&&%O#&&O%&#O%&&&&&&&&&&&&&&&&&&&&&&    ",
"     &&&&&&&&&&&&&&&&&&&&&&++&&&O%&&++&&&&&&&&&&&&&&&&&&&&&&    ",
"     &&&&&&&&&&&&&&&&&&&&&#O%&&#X@&&%O#&&&&&&&&&&&&&&&&&&&&&    ",
"     &&&&&&&&&&&&&&&&&&&&$O$&&&XXX&&&$O$&&&&&&&&&&&&&&&&&&&&    ",
"     &&&&&&&&&&&&&&&&&&&%O#&&&%oXo%&&&#O%&&&&&&&&&&&&&&&&&&&    ",
"     &&&&&&&&&&&&&&&&&&&++&&&&++O++&&&&++&&&&&&&&&&&&&&&&&&&    ",
"     &&&&&&&&&&&&&&&&&&#O%&&&#O%o%O#&&&%O#&&&&&&&&&&&&&&&&&&    ",
"     &&&&&&&&&&&&&&&&&$O$&&&$O$&O%$O$&&&$O$&&&&&&&&&&&&&&&&&    ",
"     &&&&&&&&&&&&&&&&%O#&&&%O#&&O%&#O%&&&#O%&&&&&&&&&&&&&&&&    ",
"     &&&&&&&&&&&&&&&&++&&&&++&&&O%&&++&&&&++&&&&&&&&&&&&&&&&    ",
"     &&&&&&&&&&&&&&&#O%&&&#O%&&#X@&&%O#&&&%O#&&&&&&&&&&&&&&&    ",
"     &&&&&&&&&&&&&&$O$&&&$O$&&&XXX&&&$O$&&&$O$&&&&&&&&&&&&&&    ",
"     &&&&&&&&&&&&&%O#&&&%O#&&&%oXo%&&&#O%&&&#O%&&&&&&&&&&&&&    ",
"     &&&&&&&&&&&&&++&&&&++&&&&++O++&&&&++&&&&++&&&&&&&&&&&&&    ",
"     &&&&&&&&&&&&#O%&&&#O%&&&#O%O%o#&&&%O#&&&%O#&&&&&&&&&&&&    ",
"     &&&&&&&&&&&$O$&&&$O$&&&$O$&O%$O$&&&$O$&&&$O$&&&&&&&&&&&    ",
"     &&&&&&&&&&%O#&&&%O#&&&%O#&&O%&#O%&&&#O%&&&@O%&&&&&&&&&&    ",
"     &&&&&&&&&&++&&&&++&&&&++&&&O%&&++&&&&++&&&&++&&&&&&&&&&    ",
"     &&&&&&&&#Xo%&&#Xo%&&#Xo%&&&O%&&%oX#&&%oX#&&&oX#&&&&&&&&    ",
"    OOOOOOOOOXXXOOOXXXOOOXXXOOOOOOOOOXXXOOOXXXoOOXXXOOOOOOOOO   ",
"     %%%%%%%%@Xo%%%@XX%%%@Xo%%%%o%%%%oX@%%%oX@%%%oX@%%%%%%%%    ",
"     &&&&&&&&&&++&&&&++&&&&++&&&O%&&++&&&&++&&&&++&&&&&&&&&&    ",
"     &&&&&&&&&&%O@&&&&O#&&&%O@&&O%&#o%&&&#O%&&&@O%&&&&&&&&&&    ",
"     &&&&&&&&&&&$O$&&&$O$&&&$O$&O%$O$&&&$O$&&&$O$&&&&&&&&&&&    ",
"     &&&&&&&&&&&&@O%&&&#O%&&&#O%O%O#&&&%O#&&&%O#&&&&&&&&&&&&    ",
"     &&&&&&&&&&&&&++&&&&++&&&&++O++&&&&++&&&&++&&&&&&&&&&&&&    ",
"     &&&&&&&&&&&&&%O#&&&%O#&&&%oXo%&&&#O%&&&#O%&&&&&&&&&&&&&    ",
"     &&&&&&&&&&&&&&$O$&&&$O$&&&XXX&&&$O$&&&$O$&&&&&&&&&&&&&&    ",
"     &&&&&&&&&&&&&&&#O%&&&#O%&&#X@&&%O#&&&%O#&&&&&&&&&&&&&&&    ",
"     &&&&&&&&&&&&&&&&++&&&&++&&&O%&&++&&&&++&&&&&&&&&&&&&&&&    ",
"     &&&&&&&&&&&&&&&&%O#&&&%O#&&O%&@O%&&&#O%&&&&&&&&&&&&&&&&    ",
"     &&&&&&&&&&&&&&&&&$O$&&&$O$&O%$O$&&&$O$&&&&&&&&&&&&&&&&&    ",
"     &&&&&&&&&&&&&&&&&&#O%&&&#O%o%O#&&&%O#&&&&&&&&&&&&&&&&&&    ",
"     &&&&&&&&&&&&&&&&&&&++&&&&++O++&&&&++&&&&&&&&&&&&&&&&&&&    ",
"     &&&&&&&&&&&&&&&&&&&%O#&&&%oXo%&&&#O%&&&&&&&&&&&&&&&&&&&    ",
"     &&&&&&&&&&&&&&&&&&&&$O$&&&XXX&&&$O$&&&&&&&&&&&&&&&&&&&&    ",
"     &&&&&&&&&&&&&&&&&&&&&#O%&&#X@&&&O#&&&&&&&&&&&&&&&&&&&&&    ",
"     &&&&&&&&&&&&&&&&&&&&&&++&&&O%&&++&&&&&&&&&&&&&&&&&&&&&&    ",
"     &&&&&&&&&&&&&&&&&&&&&&&O#&&O%&#O%&&&&&&&&&&&&&&&&&&&&&&    ",
"     &&&&&&&&&&&&&&&&&&&&&&&$O$&O%$o$&&&&&&&&&&&&&&&&&&&&&&&    ",
"     &&&&&&&&&&&&&&&&&&&&&&&&#O%O%O#&&&&&&&&&&&&&&&&&&&&&&&&    ",
"     &&&&&&&&&&&&&&&&&&&&&&&&&++O++&&&&&&&&&&&&&&&&&&&&&&&&&    ",
"     &&&&&&&&&&&&&&&&&&&&&&&&&%oXo%&&&&&&&&&&&&&&&&&&&&&&&&&    ",
"     &&&&&&&&&&&&&&&&&&&&&&&&&&XXX&&&&&&&&&&&&&&&&&&&&&&&&&&    ",
"     &&&&&&&&&&&&&&&&&&&&&&&&&&#X@&&&&&&&&&&&&&&&&&&&&&&&&&&    ",
"     &&&&&&&&&&&&&&&&&&&&&&&&&&&O%&&&&&&&&&&&&&&&&&&&&&&&&&&    ",
"     &&&&&&&&&&&&&&&&&&&&&&&&&&&O%&&&&&&&&&&&&&&&&&&&&&&&&&&    ",
"                                O                               ",
"                                                                ",
"                                                                ",
"                                                                "
};
