/* XPM */
static char *wall_texture_south[] = {
/* columns rows colors chars-per-pixel */
"64 64 7 1 ",
"  c DimGray",
". c #6ADA6ADA6ADA",
"X c #777777777777",
"o c #808080808080",
"O c #987098709870",
"+ c #A716A716A716",
"@ c #A9A9A9A9A9A9",
/* pixels */
"                                                                ",
"                                                                ",
"                                                                ",
"                                                                ",
"                  o             o             o                 ",
"     @@@@@@@@@@@@@o+@@@@@@@@@@@@o+@@@@@@@@@@@@o+@@@@@@@@@@@@    ",
"     @OXXXXXXXXXO@o+OXXXXXXXXXO@o@OXXXXXXXXXO@o+OXXXXXXXXXO@    ",
"     @XXXXXXXXXXX@o+XXXXXXXXXXX@o+XXXXXXXXXXX@o+XXXXXXXXXXX@    ",
"     @XXXXXXXXXXX@o+XXXXXXXXXXX@o+XXXXXXXXXXX@o+XXXXXXXXXXX@    ",
"     @XXXXXXXXXXX@o+XXXXXXXXXXX@o+XXXXXXXXXXX@o+XXXXXXXXXXX@    ",
"     @XXXXXXXXXXX@o+XXXXXXXXXXX@o+XXXXXXXXXXX@o+XXXXXXXXXXX@    ",
"     @XXXXXXXXXXX@o+XXXXXXXXXXX@o+XXXXXXXXXXX@o+XXXXXXXXXXX@    ",
"     @XXXXXXXXXXX@o+XXXXXXXXXXX@o+XXXXXXXXXXX@o+XXXXXXXXXXX@    ",
"     @XXXXXXXXXXX@o+XXXXXXXXXXX@o+XXXXXXXXXXX@o+XXXXXXXXXXX@    ",
"     @XXXXXXXXXXX@o+XXXXXXXXXXX@o+XXXXXXXXXXX@o+XXXXXXXXXXX@    ",
"     @XXXXXXXXXXX@o+XXXXXXXXXXX@o+XXXXXXXXXXX@o+XXXXXXXXXXX@    ",
"     @OXXXXXXXXXO@o@OXXXXXXXXXO@o+OXXXXXXXXXO@o@OXXXXXXXXXO@    ",
"     @@@@@@@@@@@@@o@@@@@@@@@@@@@o+@@@@@@@@@@@@o@@@@@@@@@@@@@    ",
"    oooooooooooooooXooooooooooooooooooooooooooooooooooooooooo   ",
"     +++++++++++++o++++@++++++++X+++++++++++++X++++@++++++++    ",
"     @OXXXXXXXXXO@o+OXXXXXXXXXO@o@OXXXXXXXXXO@o+OXXXXXXXXXO@    ",
"     @XXXXXXXXXXX@o+XXXXXXXXXXX@o@XXXXXXXXXXX@o+XXXXXXXXXXX@    ",
"     @XXXXXXXXXXX@o+XXXXXXXXXXX@o+XXXXXXXXXXX@o+XXXXXXXXXXX@    ",
"     @XXXXXXXXXXX@o+XXXXXXXXXXX@o@XXXXXXXXXXX@o+XXXXXXXXXXX@    ",
"     @XXXXXXXXXXX@o+XXXXXXXXXXX@o+XXXXXXXXXXX@o+XXXXXXXXXXX@    ",
"     @XXXXXXXXXXX@o+XXXXXXXXXXX@o+XXXXXXXXXXX@o+XXXXXXXXXXX@    ",
"     @XXXXXXXXXXX@o+XXXXXXXXXXX@o+XXXXXXXXXXX@o+XXXXXXXXXXX@    ",
"     @XXXXXXXXXXX@o+XXXXXXXXXXX@o+XXXXXXXXXXX@o+XXXXXXXXXXX@    ",
"     @XXXXXXXXXXX@o+XXXXXXXXXXX@o+XXXXXXXXXXX@o+XXXXXXXXXXX@    ",
"     @XXXXXXXXXXX@o+XXXXXXXXXXX@o+XXXXXXXXXXX@o+XXXXXXXXXXX@    ",
"     @OXXXXXXXXXO@o+OXXXXXXXXXO@o+OXXXXXXXXXO@o+OXXXXXXXXXO@    ",
"     @@@@@@@@@@@@@o+@@@@@@@@@@@@o+@@@@@@@@@@@@o@@@@@@@@@@@@@    ",
"    oooooooooooooooXooooooooooooooooooooooooooooooooooooooooo   ",
"     +++++++++++@@o+++++++++++++X+++++++++++++X+@@+@++++++++    ",
"     @OXXXXXXXXXO@o+OXXXXXXXXXO@o@OXXXXXXXXXO@o+OXXXXXXXXXO@    ",
"     @XXXXXXXXXXX@o+XXXXXXXXXXX@o@XXXXXXXXXXX@o+XXXXXXXXXXX@    ",
"     @XXXXXXXXXXX@o@XXXXXXXXXXX@o+XXXXXXXXXXX@o+XXXXXXXXXXX@    ",
"     @XXXXXXXXXXX@o+XXXXXXXXXXX@o+XXXXXXXXXXX@o+XXXXXXXXXXX@    ",
"     @XXXXXXXXXXX@o+XXXXXXXXXXX@o+XXXXXXXXXXX@o+XXXXXXXXXXX@    ",
"     @XXXXXXXXXXX@o+XXXXXXXXXXX@o+XXXXXXXXXXX@o+XXXXXXXXXXX@    ",
"     @XXXXXXXXXXX@o+XXXXXXXXXXX@o+XXXXXXXXXXX@o+XXXXXXXXXXX@    ",
"     @XXXXXXXXXXX@o+XXXXXXXXXXX@o+XXXXXXXXXXX@o+XXXXXXXXXXX@    ",
"     @XXXXXXXXXXX@o+XXXXXXXXXXX@o+XXXXXXXXXXX@o+XXXXXXXXXXX@    ",
"     @XXXXXXXXXXX@o+XXXXXXXXXXX@o+XXXXXXXXXXX@o+XXXXXXXXXXX@    ",
"     @OXXXXXXXXXO@o@OXXXXXXXXXO@o+OXXXXXXXXXO@o@OXXXXXXXXXO@    ",
"     @@@@@@@@@@@@@o@@@@@@@@@@@@@o+@@@@@@@@@@@@o@@@@@@@@@@@@@    ",
"    oooooooooooooooooooooooooooooooooooooooooooXooooooooooooo   ",
"     ++@++++++++++X+++++++++++++o+++++++++++++o+++++++++++@@    ",
"     @OXXXXXXXXXO@o+OXXXXXXXXXO@o+OXXXXXXXXXO@o+OXXXXXXXXXO@    ",
"     @XXXXXXXXXXX@o+XXXXXXXXXXX@o+XXXXXXXXXXX@o+XXXXXXXXXXX@    ",
"     @XXXXXXXXXXX@o+XXXXXXXXXXX@o+XXXXXXXXXXX@o+XXXXXXXXXXX@    ",
"     @XXXXXXXXXXX@o+XXXXXXXXXXX@o+XXXXXXXXXXX@o+XXXXXXXXXXX@    ",
"     @XXXXXXXXXXX@o+XXXXXXXXXXX@o+XXXXXXXXXXX@o+XXXXXXXXXXX@    ",
"     @XXXXXXXXXXX@o+XXXXXXXXXXX@o+XXXXXXXXXXX@o+XXXXXXXXXXX@    ",
"     @XXXXXXXXXXX@o+XXXXXXXXXXX@o+XXXXXXXXXXX@o+XXXXXXXXXXX@    ",
"     @XXXXXXXXXXX@o+XXXXXXXXXXX@o+XXXXXXXXXXX@o+XXXXXXXXXXX@    ",
"     @XXXXXXXXXXX@o+XXXXXXXXXXX@o+XXXXXXXXXXX@o+XXXXXXXXXXX@    ",
"     @XXXXXXXXXXX@o+XXXXXXXXXXX@o+XXXXXXXXXXX@o+XXXXXXXXXXX@    ",
"     @OXXXXXXXXXO@o@OXXXXXXXXXO@o+OXXXXXXXXXO@o+OXXXXXXXXXO@    ",
"     @@@@@@@@@@@@@o@@@@@@@@@@@@@o+@@@@@@@@@@@@o@@@@@@@@@@@@@    ",
"                  o             o             o                 ",
"                                                                ",
"                                                                ",
"                                                                "
};
