/* XPM */
static char *wall_texture_north[] = {
/* columns rows colors chars-per-pixel */
"64 64 8 1 ",
"  c DimGray",
". c #6ADA6ADA6ADA",
"X c #777777777777",
"o c #808080808080",
"O c #96BF96BF96BF",
"+ c #987098709870",
"@ c #A716A716A716",
"# c #A9A9A9A9A9A9",
/* pixels */
"                                                                ",
"                                                                ",
"                                                                ",
"                                                                ",
"              o                 o                 o             ",
"     #########o@################o@################o@########    ",
"     #########o@################o#################o@########    ",
"     #########o@################o@################o@########    ",
"     #########o@################o@################o@########    ",
"     #########o@################o@################o@########    ",
"     #########o@################o@################o@########    ",
"     ########+XO###############+XO###############+XO########    ",
"    oooooooooXXXoooooooXoooooooXXXoooooooooooooooXXXooooooooo   ",
"     @#@@@@@@OXO@@@@##o@@@@@@@@OXO@@@@@@X@@@@@@@@OXO@@@@@@##    ",
"     #################o@################o###################    ",
"     #################o@################o###################    ",
"     #################o@################o@##################    ",
"     #################o@################o@##################    ",
"     #################o@################o@##################    ",
"     #################o@################o@##################    ",
"     #################o@################o@##################    ",
"     #################o@################o@##################    ",
"     #################o@################o@##################    ",
"     ################+XO###############+XO##################    ",
"    oooooooooooooooooXXXoooooooooooooooXXXoooooooooXooooooooo   ",
"     @@@@@@@@@o@@@@@@OXO@@@@@@@@o@@@@@@OXO@@@@@@##o@@@@#@@@@    ",
"     #########o@################o@################o@########    ",
"     #########o@################o@################o@########    ",
"     #########o@################o@################o@########    ",
"     #########o@################o@################o@########    ",
"     #########o@################o@################o@########    ",
"     #########o@################o@################o@########    ",
"     #########o@################o@################o@########    ",
"     #########o@################o@################o@########    ",
"     #########o@################o@################o@########    ",
"     ########+XO###############+XO###############+XO########    ",
"    oooooooooXXXoooooooXoooooooXXXoooooooooooooooXXXooooooooo   ",
"     @@@@@@@@OXO##@#@@o@@@@@@@@OXO@@@@@@X@##@@@@@OXO@@@@@@@#    ",
"     #################o@################o@##################    ",
"     #################o@################o@##################    ",
"     #################o@################o@##################    ",
"     #################o@################o@##################    ",
"     #################o@################o@##################    ",
"     #################o@################o@##################    ",
"     #################o@################o@##################    ",
"     #################o@################o@##################    ",
"     #################o@################o@##################    ",
"     ################+XO###############+XO##################    ",
"    oooooooooooooooooXXXoooooooooXoooooXXXooooooooooooooooooo   ",
"     @#@@@@@@@X@##@@@OXO@@@@@@@@o@@@@@@OXO@@@@@#@@X@@@@@@@@@    ",
"     #########o#################o#################o#########    ",
"     #########o#################o#################o#########    ",
"     #########o@################o@################o@########    ",
"     #########o@################o@################o@########    ",
"     #########o@################o@################o@########    ",
"     #########o@################o@################o@########    ",
"     #########o@################o@################o@########    ",
"     #########o@################o@################o@########    ",
"     #########o@################o@################o#########    ",
"     #########o@################o@################o#########    ",
"              o                 o                 o             ",
"                                                                ",
"                                                                ",
"                                                                "
};
